<?xml version="1.0" encoding="UTF-8"?><svg xmlns="http://www.w3.org/2000/svg" viewBox="0 0 400 119.64511"><defs><style>.c{fill:#fcfcfc;}.d{fill:#18161b;}.e{fill:#2d2c2f;}</style></defs><g id="a"><g><g><path class="e" d="M164.91833,57.55929c-.83809,1.6044-1.96117,2.89689-3.36887,3.87675-1.40878,.98094-3.03974,1.67618-4.89287,2.08572-1.85385,.40989-3.81466,.61484-5.88171,.61484-.71354,0-1.53333-.02692-2.45972-.0804-.92746-.05348-1.69377-.09763-2.29928-.13352v13.9561c0,.28606-.0987,.5348-.29432,.74872-.19633,.21392-.43681,.32088-.7218,.32088h-5.34727c-.2857,0-.5348-.10696-.74872-.32088s-.32088-.46265-.32088-.74872V41.09c0-.5348,.15147-.91741,.45476-1.14964,.30222-.23151,.7218-.38261,1.2566-.45476,1.39012-.21356,2.99451-.38261,4.81247-.50788,1.81796-.12455,3.70698-.187,5.66815-.187,2.06705,0,4.02786,.19633,5.88171,.58792,1.85313,.39302,3.48409,1.0696,4.89287,2.03224,1.40771,.96228,2.53078,2.23754,3.36887,3.82327,.83701,1.58645,1.2566,3.55587,1.2566,5.90863v.48132c0,2.35276-.41958,4.33115-1.2566,5.93519Zm-6.17603-6.44486c0-2.25441-.66617-3.85594-1.99706-4.80493-1.33161-.94828-3.32867-1.42314-5.99046-1.42314-.28427,0-.64858,.00933-1.09221,.02692-.44363,.01831-.89624,.03589-1.35746,.0542s-.8966,.03589-1.30433,.05348c-.40846,.01831-.73687,.04522-.98489,.0804v12.77882c.21212,0,.54054,.00933,.98489,.02692,.44363,.01831,.90485,.03589,1.38438,.05348,.47881,.01831,.94003,.03589,1.38438,.05348,.44363,.01831,.77205,.02656,.98525,.02656,2.87499,0,4.92517-.53623,6.15019-1.61086,1.22465-1.07355,1.83734-2.6844,1.83734-4.83149v-.48383Z"/><path class="e" d="M185.59132,54.08382c-.21392,.21392-.46373,.32088-.74872,.32088-1.46226,0-2.77234,.16941-3.93023,.50788-1.15897,.33918-2.30861,.81117-3.44891,1.41704v21.49568c0,.28606-.10696,.54413-.32088,.77564-.21392,.23222-.46373,.34744-.74872,.34744h-4.91943c-.2857,0-.5348-.11522-.74836-.34744-.21392-.23151-.32088-.48957-.32088-.77564v-27.96603c0-.28463,.10696-.53444,.32088-.74836,.21356-.21392,.46265-.32088,.74836-.32088h4.65203c.28499,0,.5348,.10696,.74872,.32088s.32088,.46373,.32088,.74836v1.12308c1.31833-1.03371,2.65533-1.71961,4.01027-2.0588,1.35458-.33847,2.56668-.50788,3.63627-.50788,.28499,0,.5348,.10696,.74872,.32088s.32088,.46373,.32088,.74872v3.84983c0,.2857-.10696,.5348-.32088,.74872Z"/><path class="e" d="M211.23673,71.38187c-.5531,1.6227-1.36356,3.02143-2.43316,4.19763-1.06924,1.17656-2.39798,2.10402-3.98371,2.78059-1.58645,.67693-3.43133,1.01612-5.53427,1.01612-2.10366,0-3.94854-.33918-5.53427-1.01612-1.58681-.67657-2.91447-1.60404-3.98371-2.78059-1.0696-1.1762-1.88077-2.57493-2.43316-4.19763-.5531-1.62162-.82876-3.39543-.82876-5.32035v-4.33115c0-1.92528,.27565-3.69801,.82876-5.32071,.55239-1.62162,1.36356-3.02107,2.43316-4.19763,1.06924-1.1762,2.3969-2.10294,3.98371-2.78024,1.58573-.67693,3.43061-1.01612,5.53427-1.01612,2.10294,0,3.94782,.33918,5.53427,1.01612,1.58573,.67729,2.91447,1.60404,3.98371,2.78024,1.0696,1.17656,1.88005,2.57601,2.43316,4.19763,.55203,1.6227,.82876,3.39543,.82876,5.32071v4.33115c0,1.92492-.27673,3.69873-.82876,5.32035Zm-6.22951-9.6515c0-2.2099-.48132-3.96541-1.44396-5.26723-.96228-1.30075-2.38865-1.95148-4.27767-1.95148-1.88974,0-3.31539,.65073-4.27767,1.95148-.96264,1.30182-1.44396,3.05733-1.44396,5.26723v4.33115c0,2.21062,.48132,3.96613,1.44396,5.26687,.96228,1.30182,2.38793,1.95184,4.27767,1.95184,1.88902,0,3.31539-.65001,4.27767-1.95184,.96264-1.30075,1.44396-3.05625,1.44396-5.26687v-4.33115Z"/><path class="e" d="M238.5232,75.82034c-2.10366,2.37106-5.3121,3.55587-9.62494,3.55587-.64176,0-1.40878-.02692-2.29928-.0804-.89157-.05348-1.83662-.15183-2.83407-.29396v9.4645c0,.28499-.10696,.5348-.32088,.74872s-.46373,.32088-.74872,.32088h-4.91943c-.2857,0-.5348-.10696-.74836-.32088-.21392-.21392-.32088-.46373-.32088-.74872V51.24974c0-.39195,.0883-.68591,.2674-.88224,.17767-.19561,.56961-.38261,1.1762-.56172,1.6751-.42748,3.45753-.76595,5.34727-1.01576,1.88902-.24909,3.68975-.37436,5.40075-.37436,4.31285,0,7.52128,1.18553,9.62494,3.55587,2.10294,2.37106,3.15495,5.65989,3.15495,9.86578v4.11723c0,4.20696-1.05201,7.49544-3.15495,9.86578Zm-3.90331-13.97153c0-1.09867-.0804-2.10869-.24084-3.03112-.16044-.92172-.4544-1.71961-.88224-2.39296s-1.01612-1.20563-1.76448-1.59578c-.74872-.38943-1.69377-.58469-2.83407-.58469-.96264,0-1.93425,.03589-2.91412,.10696-.98094,.07071-1.72033,.15936-2.21924,.2656v18.55824c.74872,.10696,1.63096,.19561,2.64672,.26632,1.01612,.07107,1.84488,.10624,2.48663,.10624,1.14031,0,2.08536-.19454,2.83407-.58469,.74836-.38943,1.33664-.92172,1.76448-1.59506s.7218-1.47124,.88224-2.39367c.16044-.92172,.24084-1.93174,.24084-3.03148v-4.0939Z"/><path class="e" d="M272.06603,45.15376c-.21392,.17874-.46373,.2674-.74872,.2674h-9.3579v32.45762c0,.28606-.1066,.5348-.32052,.74872s-.46373,.32088-.74872,.32088h-5.29379c-.2857,0-.5348-.10696-.74872-.32088s-.32088-.46265-.32088-.74872V45.42116h-9.35754c-.2857,0-.5348-.08865-.74872-.2674-.21392-.17803-.32088-.40917-.32088-.69524v-4.22419c0-.28499,.10696-.52547,.32088-.7218,.21392-.19561,.46301-.29396,.74872-.29396h26.14807c.28499,0,.5348,.09835,.74872,.29396,.21356,.19633,.32052,.43681,.32052,.7218v4.22419c0,.28606-.10696,.51721-.32052,.69524Z"/><path class="e" d="M288.86423,54.08382c-.21392,.21392-.46373,.32088-.74872,.32088-1.46226,0-2.77234,.16941-3.93023,.50788-1.15897,.33918-2.30861,.81117-3.44891,1.41704v21.49568c0,.28606-.10696,.54413-.32088,.77564-.21392,.23222-.46373,.34744-.74872,.34744h-4.91943c-.2857,0-.5348-.11522-.74836-.34744-.21392-.23151-.32088-.48957-.32088-.77564v-27.96603c0-.28463,.10696-.53444,.32088-.74836,.21356-.21392,.46265-.32088,.74836-.32088h4.65203c.28499,0,.5348,.10696,.74872,.32088s.32088,.46373,.32088,.74836v1.12308c1.31833-1.03371,2.65533-1.71961,4.01027-2.0588,1.35458-.33847,2.56668-.50788,3.63627-.50788,.28499,0,.5348,.10696,.74872,.32088s.32088,.46373,.32088,.74872v3.84983c0,.2857-.10696,.5348-.32088,.74872Z"/><path class="e" d="M313.11364,78.6275c-.21392,.21392-.46373,.32088-.74872,.32088h-4.54507c-.2857,0-.5348-.10696-.74872-.32088s-.32052-.46265-.32052-.74872v-.85532c-1.24834,.74836-2.49597,1.32838-3.74323,1.73792-1.24834,.40917-2.5132,.61484-3.79671,.61484-1.10513,0-2.21062-.12526-3.31503-.37436-1.10549-.24909-2.09469-.71283-2.96795-1.39012-.87362-.67693-1.58645-1.58609-2.13884-2.72711-.5531-1.14066-.82876-2.62016-.82876-4.43847v-.21392c0-3.06522,1.01612-5.37383,3.04799-6.92439,2.03188-1.55092,5.36486-2.3262,9.9993-2.3262h3.36887v-2.37214c0-1.76017-.38369-2.92847-1.14964-3.50311-.76702-.575-1.95184-.86214-3.55587-.86214-1.71136,0-3.36887,.04487-4.97327,.13352-1.60404,.08937-2.85238,.18736-3.74287,.29432h-.2674c-.2857,0-.51721-.05348-.69524-.16044-.17874-.10696-.2674-.35534-.2674-.74477v-3.39113c0-.59976,.33847-.97089,1.01612-1.11195,1.0696-.21248,2.36101-.4063,3.87675-.58325,1.51467-.17623,3.1991-.26489,5.05331-.26489,3.81394,0,6.72806,.83809,8.7427,2.5132,2.01357,1.67618,3.02107,4.24286,3.02107,7.70003v19.24989c0,.28606-.10696,.5348-.32088,.74872Zm-6.73739-12.94034h-3.38826c-1.21963,0-2.21493,.0987-2.98518,.29432-.77025,.19633-1.38007,.48096-1.82801,.85532-.44866,.37436-.75374,.84742-.9149,1.41704-.16116,.57069-.24156,1.23004-.24156,1.9784v.21392c0,1.31941,.30437,2.20165,.91418,2.64707,.60981,.44614,1.59578,.66832,2.95755,.66832,.96766,0,1.92671-.14213,2.8775-.42784,.95008-.28499,1.81975-.64176,2.60867-1.06924v-6.57731Z"/><path class="e" d="M337.08638,78.22658c-.14285,.19633-.44614,.34744-.9088,.4544-.60658,.17874-1.49744,.33847-2.67364,.48132-1.17656,.14213-2.58534,.21392-4.22455,.21392-1.74689,0-3.36026-.2674-4.83903-.8022-1.47985-.5348-2.76301-1.34525-3.85019-2.4328-1.0879-1.08718-1.94322-2.44141-2.56668-4.06411-.62417-1.62162-.93572-3.51998-.93572-5.69471v-4.97291c0-2.17401,.31155-4.07237,.93572-5.69471,.62345-1.62198,1.47877-2.97621,2.56668-4.06411,1.08718-1.08683,2.37034-1.89836,3.85019-2.4328,1.47877-.5348,3.09214-.8022,4.83903-.8022,1.63921,0,3.04799,.07179,4.22455,.21392,1.1762,.14285,2.06705,.30329,2.67364,.48132,.46265,.10696,.76595,.25879,.9088,.4544,.14213,.19633,.21392,.50788,.21392,.93572v3.47583c0,.2857-.08937,.49029-.2674,.61484-.17874,.12526-.41025,.187-.69488,.187h-.16044c-.5348-.07071-1.03442-.13352-1.49744-.187-.46373-.05348-.94505-.08865-1.4436-.10696-.49962-.01759-1.0696-.03517-1.71136-.05348-.6414-.01759-1.39012-.02656-2.2458-.02656-.6414,0-1.26557,.10696-1.87144,.32052-.60658,.21392-1.14964,.58002-1.63096,1.09652-.48132,.51685-.87398,1.22968-1.1762,2.13884-.30329,.9088-.45476,2.05844-.45476,3.44891v4.97291c0,1.39012,.15147,2.53976,.45476,3.44891,.30222,.90916,.69488,1.6227,1.1762,2.13884,.48132,.51721,1.02437,.88224,1.63096,1.09616,.60587,.21392,1.23004,.32088,1.87144,.32088,.85568,0,1.6044-.00826,2.2458-.02656,.64176-.01759,1.21173-.03517,1.71136-.05348,.49855-.01759,.97987-.05348,1.4436-.10696,.46301-.05348,.96264-.11522,1.49744-.18736h.16044c.28463,0,.51613,.06281,.69488,.18736,.17803,.12526,.2674,.32985,.2674,.61484v3.47583c0,.42748-.07179,.7401-.21392,.93572Z"/><path class="e" d="M365.95631,78.30662c0,.17874-.07179,.33021-.21392,.45476-.14285,.12526-.32088,.187-.5348,.187h-6.52347c-.2857,0-.57069-.11522-.85568-.34744-.2857-.23151-.51721-.47235-.69488-.72216l-8.39526-12.19162v12.13814c0,.28606-.10696,.54413-.32088,.77564-.21392,.23222-.46373,.34744-.74872,.34744h-4.91943c-.2857,0-.5348-.11522-.74836-.34744-.21392-.23151-.32088-.48957-.32088-.77564V39.32517c0-.28463,.10696-.53444,.32088-.74836,.21356-.21392,.46265-.32088,.74836-.32088h4.91943c.28499,0,.5348,.10696,.74872,.32088s.32088,.46373,.32088,.74836v22.29824l9.14362-12.19162c.17803-.24909,.38261-.41887,.6152-.50824,.23115-.0883,.43609-.13352,.61484-.13352h5.98867c.5348,0,.8022,.19633,.8022,.58828,0,.17874-.07179,.35677-.21392,.53444l-10.74802,13.20774,10.85498,14.75829c.10696,.14285,.16044,.28606,.16044,.42784Z"/></g><g><circle class="d" cx="80.32853" cy="59.82256" r="46.28484"/><path class="c" d="M103.51841,64.23258c0,5.78383,.00347,11.39318-.00265,17.00251-.00139,1.27187,.00244,2.54569-.06442,3.81508-.10229,1.94218-1.22847,2.92757-3.13492,3.05553-.91303,.06127-1.83249,.03636-2.74904,.03653-10.8172,.00193-21.63443,.01882-32.45157-.00648-5.09988-.01193-6.30718-1.10503-6.53877-6.34183-.17652-3.99151-.03123-7.997-.02964-11.99627,.00071-1.78258,.00012-3.56516,.00012-5.40042-1.87386-.48263-3.43962-.80556-4.95244-1.29077-4.36619-1.40036-5.69925-5.9164-2.80817-9.45821,.57397-.70316,1.26948-1.30975,1.91746-1.95242,8.03665-7.97072,16.07453-15.94021,24.11332-23.90881,.64815-.6425,1.25297-1.34186,1.96829-1.90116,1.86072-1.45487,3.42377-1.37509,5.36032,.20423,.42346,.34535,.80216,.74597,1.19108,1.13145,8.55795,8.48221,17.12132,16.95908,25.66202,25.45834,1.00843,1.00354,2.1378,1.87924,2.36021,3.52392,.50131,3.7071-.73426,5.57444-4.3711,6.98762-1.69472,.65853-3.50668,.51108-5.47011,1.04116Zm-37.21831-7.76622v23.80947c9.02461,.76983,26.20654,.53696,30.56439-.45936v-23.16848l6.67039-.44332c-7.16133-8.21289-19.32059-19.82228-21.75215-21.17612-7.37469,7.31542-14.55719,14.44019-21.6115,21.4378h6.12888Z"/><path class="d" d="M66.3001,56.46636h-6.12888c7.05431-6.99761,14.23681-14.12238,21.6115-21.4378,2.43156,1.35384,14.59082,12.96323,21.75215,21.17612l-6.67039,.44332v23.16848c-4.35785,.99632-21.53978,1.22919-30.56439,.45936v-23.80947Z"/></g></g></g><g id="b"/></svg>